# xmcd CD database file
#
# Track frame offsets:
#	150
#	14302
#	34386
#	50412
#	76029
#	114033
#	130075
#	150542
#	167875
#	196690
#	212156
#	228380
#	263973
#
# Disc length: 3746 seconds
#
# Revision: 0
# Processed by: cddbd v1.5.2PL0 Copyright (c) Steve Scherf et al.
# Submitted via: CDex 1.70beta3
#
DISCID=9e0ea00d
DTITLE=Andrew Cyrille with Greg Osby - Low Blue Flame
DYEAR=2005
DGENRE=Jazz
TTITLE0=Equalatogram
TTITLE1=Work
TTITLE2=With You in Mind (instrumental)
TTITLE3=Cyrille in Motion
TTITLE4=No. 11
TTITLE5=Noodle
TTITLE6=Striation
TTITLE7=With You in Mind (recital)
TTITLE8=Low Blue Flame
TTITLE9=Pop Pop
TTITLE10=Concepticus
TTITLE11=THe Music in Us
TTITLE12=Roscoe
EXTD=YEAR: 2005
EXTT0=
EXTT1=
EXTT2=
EXTT3=
EXTT4=
EXTT5=
EXTT6=
EXTT7=
EXTT8=
EXTT9=
EXTT10=
EXTT11=
EXTT12=
PLAYORDER=
